<mxfile host="app.diagrams.net" agent="Mozilla/5.0 (Windows NT 10.0; Win64; x64) AppleWebKit/537.36 (KHTML, like Gecko) Chrome/130.0.0.0 Safari/537.36" version="24.8.3">
  <diagram name="Pagina-1" id="UHVC22p6mpxQdWoI4K1v">
    <mxGraphModel dx="1167" dy="580" grid="1" gridSize="10" guides="1" tooltips="1" connect="1" arrows="1" fold="1" page="1" pageScale="1" pageWidth="827" pageHeight="1169" math="0" shadow="0">
      <root>
        <mxCell id="0" />
        <mxCell id="1" parent="0" />
        <mxCell id="hlQY9DIz9opMbPh1YKKp-1" value="" style="whiteSpace=wrap;html=1;aspect=fixed;" vertex="1" parent="1">
          <mxGeometry x="160" y="40" width="480" height="480" as="geometry" />
        </mxCell>
        <mxCell id="hlQY9DIz9opMbPh1YKKp-2" value="Document 1&lt;div&gt;&lt;br&gt;&lt;/div&gt;&lt;div&gt;Linked to : ....................&lt;/div&gt;" style="rounded=0;whiteSpace=wrap;html=1;fillColor=#d5e8d4;strokeColor=#82b366;" vertex="1" parent="1">
          <mxGeometry x="190" y="80" width="420" height="160" as="geometry" />
        </mxCell>
        <mxCell id="hlQY9DIz9opMbPh1YKKp-3" value="Document 2&lt;div&gt;&lt;br&gt;&lt;/div&gt;&lt;div&gt;Linked to : ....................&lt;/div&gt;" style="rounded=0;whiteSpace=wrap;html=1;fillColor=#d5e8d4;strokeColor=#82b366;" vertex="1" parent="1">
          <mxGeometry x="190" y="300" width="420" height="170" as="geometry" />
        </mxCell>
      </root>
    </mxGraphModel>
  </diagram>
</mxfile>
